# File generated by ImageToStl.com - Free Image and 3D model conversion tools

o obj1
v -0.03759483 0.00319979 0
v -0.03759483 0.00319979 -0.027
v -0.03759483 -0.00319979 -0.027
v -0.03759483 -0.00319979 0
v -0.03651329 -0.00950732 -0.027
v 0 0 -0.027
v -0.03651329 0.00950732 0
v 0 0 0
v -0.03651329 0.00950732 -0.027
v -0.03651329 -0.00950732 0
v -0.03438133 -0.01554134 -0.027
v 0.03773075 0 -0.027
v 0.03718803 -0.00637653 -0.027
v 0.03293948 0.0184011 -0.027
v 0.03557548 0.01256961 -0.027
v 0.03718803 0.00637653 -0.027
v 0.01978251 0.03212883 -0.027
v 0.02492775 0.02832343 -0.027
v 0.02935587 0.02370321 -0.027
v 0.00160134 0.03769675 -0.027
v 0.00794909 0.03688389 -0.027
v 0.01406815 0.03500995 -0.027
v -0.01698652 0.03369076 -0.027
v -0.01104842 0.03607689 -0.027
v -0.00479248 0.03742515 -0.027
v -0.03126029 0.02112827 -0.027
v -0.02723995 0.02610737 -0.027
v -0.02243596 0.03033542 -0.027
v -0.03438133 0.01554134 -0.027
v -0.02243596 -0.03033542 -0.027
v -0.02723995 -0.02610737 -0.027
v -0.03126029 -0.02112827 -0.027
v -0.00479248 -0.03742515 -0.027
v -0.01104842 -0.03607689 -0.027
v -0.01698652 -0.03369076 -0.027
v 0.01406815 -0.03500995 -0.027
v 0.00794909 -0.03688389 -0.027
v 0.00160134 -0.03769675 -0.027
v 0.02935587 -0.02370321 -0.027
v 0.02492775 -0.02832343 -0.027
v 0.01978251 -0.03212883 -0.027
v 0.03557548 -0.01256961 -0.027
v 0.03293948 -0.0184011 -0.027
v -0.03438133 0.01554134 0
v 0.03773075 -0 0
v 0.03718803 0.00637653 0
v 0.03293948 -0.0184011 0
v 0.03557548 -0.01256961 0
v 0.03718803 -0.00637653 0
v 0.01978251 -0.03212883 0
v 0.02492775 -0.02832343 0
v 0.02935587 -0.02370321 0
v 0.00160134 -0.03769675 0
v 0.00794909 -0.03688389 0
v 0.01406815 -0.03500995 0
v -0.01698652 -0.03369076 0
v -0.01104842 -0.03607689 0
v -0.00479248 -0.03742515 0
v -0.03126029 -0.02112827 0
v -0.02723995 -0.02610737 0
v -0.02243596 -0.03033542 0
v -0.03438133 -0.01554134 0
v -0.02243596 0.03033542 0
v -0.02723995 0.02610737 0
v -0.03126029 0.02112827 0
v -0.00479248 0.03742515 0
v -0.01104842 0.03607689 0
v -0.01698652 0.03369076 0
v 0.01406815 0.03500995 0
v 0.00794909 0.03688389 0
v 0.00160134 0.03769675 0
v 0.02935587 0.02370321 0
v 0.02492775 0.02832343 0
v 0.01978251 0.03212883 0
v 0.03557548 0.01256961 0
v 0.03293948 0.0184011 0
v -0.00319779 -0.037595 -0.02278548
v -0.00479248 -0.03742515 -0.02202765
v -3E-08 -0.03773075 -0.02334933
v -0.00162927 -0.03769556 -0.02320628
v -0.0092076 -0.03659002 -0.01562326
v -0.00934964 -0.03655399 -0.01399406
v -0.00716476 -0.03704424 -0.02000653
v -0.00809703 -0.0368517 -0.01867452
v -0.00878686 -0.03669333 -0.01719453
v -0.00600984 -0.03724904 -0.02116193
v 0.00934958 -0.036554 -0.01399606
v 0.00920754 -0.03659004 -0.01562326
v 0.00878613 -0.03669351 -0.01719638
v 0.00706879 -0.03706267 -0.02011911
v 0.00600978 -0.03724905 -0.02116193
v 0.00467634 -0.03743984 -0.02209581
v 0.00319772 -0.037595 -0.02278548
v 0.00809697 -0.03685171 -0.01867452
v 0.00160134 -0.03769675 -0.02321117
v -0.00162387 -0.03769579 -0.0047922
v -3E-08 -0.03773075 -0.00465011
v 0.00160134 -0.03769675 -0.00478827
v 0.00319772 -0.037595 -0.00521396
v 0.00467132 -0.03744046 -0.00590072
v 0.00600978 -0.03724905 -0.0068375
v 0.00706499 -0.0370634 -0.00787593
v 0.00794909 -0.03688389 -0.00907765
v 0.00878345 -0.03669415 -0.0107957
v 0.00920754 -0.03659004 -0.01237617
v 0.00809679 -0.03685175 -0.0093246
v -0.0092076 -0.03659002 -0.01237617
v -0.00878327 -0.03669419 -0.01079505
v -0.00809703 -0.0368517 -0.00932491
v -0.00715916 -0.03704533 -0.00798622
v -0.00600984 -0.03724904 -0.0068375
v -0.00319779 -0.037595 -0.00521396
v -0.00479248 -0.03742515 -0.00597179
v -0.00319779 -0.052 -0.02278548
v -0.00600984 -0.052 -0.02116193
v 0.00319772 -0.052 -0.02278548
v -3E-08 -0.052 -0.02334933
v -0.0092076 -0.052 -0.01562326
v -0.0092076 -0.052 -0.01237617
v -0.00809703 -0.052 -0.01867452
v 0.00920754 -0.052 -0.01237617
v 0.00920754 -0.052 -0.01562326
v 0.00809697 -0.052 -0.01867452
v 0.00600978 -0.052 -0.02116193
v -0.00319779 -0.052 -0.00521396
v -3E-08 -0.052 -0.00465011
v 0.00319772 -0.052 -0.00521396
v 0.00600978 -0.052 -0.0068375
v 0.00809697 -0.052 -0.00932491
v -0.00809703 -0.052 -0.00932491
v -0.00600984 -0.052 -0.0068375
v -3E-08 -0.052 -0.01399972
vn -1 0 -0
vn -0.98562 -0.169 -0
vn 0 0 -1
vn -0.98562 0.169 0
vn 0 0 1
vn -0.94288 -0.33314 -0
vn -0.94288 0.33314 0
vn -0.87301 -0.48769 -0
vn 0.9964 -0.08481 0
vn 0.9964 -0.08481 -0
vn 0.9964 0.08481 0
vn 0.96773 -0.25198 0
vn 0.91123 0.4119 0
vn 0.82851 0.55997 0
vn 0.96773 0.25198 0
vn 0.9964 0.08481 0
vn 0.59463 0.804 0
vn 0.4502 0.89293 0
vn 0.72196 0.69194 0
vn 0.12702 0.9919 0
vn -0.04244 0.9991 0
vn 0.29282 0.95617 0
vn -0.37286 0.92789 0
vn -0.52431 0.85153 0
vn -0.21068 0.97756 0
vn -0.77804 0.62822 0
vn -0.87301 0.48769 0
vn -0.66067 0.75067 0
vn -0.66067 -0.75067 -0
vn -0.52431 -0.85153 -0
vn -0.77804 -0.62822 -0
vn -0.10591 -0.99438 0
vn -0.21068 -0.97756 0
vn -0.04242 -0.99871 -0.02791
vn -0.02592 -0.99844 -0.04956
vn -0.06785 -0.99759 -0.01453
vn -0.26065 -0.96543 -0.00137
vn -0.21983 -0.97545 -0.01285
vn -0.23687 -0.97152 -0.00645
vn -0.24987 -0.96828 -0.00324
vn -0.17517 -0.98345 -0.04627
vn -0.19884 -0.97971 -0.0251
vn -0.37286 -0.92789 -0
vn -0.27039 -0.96275 -0
vn 0.29868 -0.95434 -0.00494
vn 0.28242 -0.95921 -0.01256
vn 0.29282 -0.95615 -0.00643
vn 0.311 -0.95041 0
vn 0.4502 -0.89293 0
vn 0.17622 -0.98435 -0.00303
vn 0.14989 -0.98863 -0.01205
vn 0.11942 -0.9923 -0.03279
vn 0.12698 -0.99161 -0.02416
vn 0.22418 -0.97455 -0.00021
vn 0.2007 -0.97965 0.00022
vn 0.06361 -0.99797 0
vn 0.02123 -0.99977 0
vn 0.72196 -0.69194 0
vn 0.82851 -0.55997 0
vn 0.59463 -0.804 0
vn 0.91123 -0.4119 0
vn -0.04242 -0.9987 0.02835
vn -0.02285 -0.99962 0.01518
vn 0.12702 -0.9919 0
vn 0.08012 -0.99481 0.06267
vn 0.11736 -0.99268 0.02844
vn 0.14882 -0.98881 0.0106
vn 0.17585 -0.98441 0.0027
vn 0.19898 -0.98 0
vn 0.29282 -0.95617 0
vn 0.28096 -0.95964 0.01217
vn 0.29788 -0.95459 0.00488
vn 0.25568 -0.96638 0.02715
vn 0.26525 -0.96396 0.02054
vn -0.24923 -0.96844 0.00308
vn -0.23599 -0.97174 0.00605
vn -0.21848 -0.97577 0.01193
vn -0.19676 -0.98018 0.02304
vn -0.21066 -0.97748 0.01233
vn -0.26017 -0.96556 0.00134
vn -0.0671 -0.99767 0.01198
vn -0.14317 -0.9897 -0
vn -0.25912 0 -0.96585
vn -0.42922 -0 -0.9032
vn -0.49998 -0.00968 -0.86598
vn -0.57954 0 -0.81495
vn 0.08636 -0.02001 -0.99606
vn 0.17365 0 -0.98481
vn -0.08746 -0 -0.99617
vn -0.17364 -0.00993 -0.98476
vn -0.96597 0 -0.25866
vn -0.99622 -0 -0.08685
vn -0.99996 -0.0092 0
vn -0.99617 0 0.08746
vn -0.70725 -0 -0.70696
vn -0.76601 -0.0095 -0.64276
vn -0.81927 0 -0.5734
vn -0.90638 -0 -0.42247
vn -0.93965 -0.00928 -0.34201
vn 0.99618 0 0.08735
vn 0.99996 -0.0092 0
vn 0.99621 0 -0.08696
vn 0.96594 0 -0.25876
vn 0.93965 -0.00928 -0.34201
vn 0.90633 0 -0.42256
vn 0.81471 0 -0.57987
vn 0.76601 -0.00943 -0.64276
vn 0.70164 0 -0.71253
vn 0.57366 0 -0.8191
vn 0.42428 -0.01921 -0.90533
vn 0.25766 0 -0.96624
vn 0.5 0 -0.86603
vn -0.08758 -0.01973 0.99596
vn -0.25883 0 0.96592
vn 0.08596 -0 0.9963
vn -0.17365 0 0.98481
vn 0.25766 -0 0.96624
vn 0.17364 -0.00993 0.98476
vn 0.42242 0 0.9064
vn 0.49998 -0.00976 0.86598
vn 0.5734 -0 0.81927
vn 0.70142 -0 0.71275
vn 0.80562 -0.00181 0.59242
vn 0.76601 -0.00943 0.64276
vn 0.85821 -0 0.5133
vn 0.90615 0 0.42296
vn 0.93965 -0.00928 0.34201
vn 0.96583 0 0.25916
vn -0.96582 0 0.2592
vn -0.93965 -0.00928 0.34201
vn -0.90614 0 0.42297
vn -0.819 0 0.57379
vn -0.76601 -0.0095 0.64276
vn -0.70693 0 0.70729
vn -0.57954 0 0.81495
vn -0.5 0 0.86603
vn -0.43068 -0.01762 0.90233
vn 0 -1 0
f 1//1 2//1 3//1
f 1//1 3//1 4//1
f 4//2 3//2 5//2
f 6//3 5//3 3//3
f 6//3 3//3 2//3
f 7//4 2//4 1//4
f 8//5 7//5 1//5
f 8//5 1//5 4//5
f 7//4 9//4 2//4
f 2//3 9//3 6//3
f 4//2 5//2 10//2
f 4//5 10//5 8//5
f 10//6 5//6 11//6
f 11//3 5//3 6//3
f 12//3 13//3 6//3
f 14//3 15//3 6//3
f 6//3 15//3 16//3
f 6//3 16//3 12//3
f 17//3 18//3 6//3
f 6//3 18//3 19//3
f 6//3 19//3 14//3
f 20//3 21//3 6//3
f 6//3 21//3 22//3
f 6//3 22//3 17//3
f 23//3 24//3 6//3
f 6//3 24//3 25//3
f 6//3 25//3 20//3
f 26//3 27//3 6//3
f 6//3 27//3 28//3
f 6//3 28//3 23//3
f 6//3 9//3 29//3
f 6//3 29//3 26//3
f 30//3 31//3 6//3
f 6//3 31//3 32//3
f 6//3 32//3 11//3
f 33//3 34//3 6//3
f 6//3 34//3 35//3
f 6//3 35//3 30//3
f 36//3 37//3 6//3
f 6//3 37//3 38//3
f 6//3 38//3 33//3
f 39//3 40//3 6//3
f 6//3 40//3 41//3
f 6//3 41//3 36//3
f 13//3 42//3 6//3
f 6//3 42//3 43//3
f 6//3 43//3 39//3
f 44//7 9//7 7//7
f 44//5 7//5 8//5
f 45//5 46//5 8//5
f 47//5 48//5 8//5
f 8//5 48//5 49//5
f 8//5 49//5 45//5
f 50//5 51//5 8//5
f 8//5 51//5 52//5
f 8//5 52//5 47//5
f 53//5 54//5 8//5
f 8//5 54//5 55//5
f 8//5 55//5 50//5
f 56//5 57//5 8//5
f 8//5 57//5 58//5
f 8//5 58//5 53//5
f 59//5 60//5 8//5
f 8//5 60//5 61//5
f 8//5 61//5 56//5
f 8//5 10//5 62//5
f 8//5 62//5 59//5
f 63//5 64//5 8//5
f 8//5 64//5 65//5
f 8//5 65//5 44//5
f 66//5 67//5 8//5
f 8//5 67//5 68//5
f 8//5 68//5 63//5
f 69//5 70//5 8//5
f 8//5 70//5 71//5
f 8//5 71//5 66//5
f 72//5 73//5 8//5
f 8//5 73//5 74//5
f 8//5 74//5 69//5
f 46//5 75//5 8//5
f 8//5 75//5 76//5
f 8//5 76//5 72//5
f 44//7 29//7 9//7
f 10//6 11//6 62//6
f 62//8 11//8 32//8
f 49//9 13//9 12//9
f 49//10 12//10 45//10
f 45//11 12//11 16//11
f 48//12 42//12 13//12
f 48//12 13//12 49//12
f 75//13 15//13 14//13
f 75//13 14//13 76//13
f 76//14 14//14 19//14
f 46//15 16//15 15//15
f 46//15 15//15 75//15
f 45//16 16//16 46//16
f 73//17 18//17 17//17
f 73//17 17//17 74//17
f 74//18 17//18 22//18
f 72//19 19//19 18//19
f 72//19 18//19 73//19
f 76//14 19//14 72//14
f 70//20 21//20 20//20
f 70//20 20//20 71//20
f 71//21 20//21 25//21
f 69//22 22//22 21//22
f 69//22 21//22 70//22
f 74//18 22//18 69//18
f 67//23 24//23 23//23
f 67//23 23//23 68//23
f 68//24 23//24 28//24
f 66//25 25//25 24//25
f 66//25 24//25 67//25
f 71//21 25//21 66//21
f 64//26 27//26 26//26
f 64//26 26//26 65//26
f 65//27 26//27 29//27
f 63//28 28//28 27//28
f 63//28 27//28 64//28
f 68//24 28//24 63//24
f 65//27 29//27 44//27
f 60//29 31//29 30//29
f 60//29 30//29 61//29
f 61//30 30//30 35//30
f 59//31 32//31 31//31
f 59//31 31//31 60//31
f 62//8 32//8 59//8
f 77//32 78//32 33//32
f 33//33 78//33 34//33
f 38//34 79//34 33//34
f 33//35 79//35 80//35
f 33//36 80//36 77//36
f 81//37 82//37 34//37
f 83//38 84//38 34//38
f 34//39 84//39 85//39
f 34//40 85//40 81//40
f 34//41 78//41 86//41
f 34//42 86//42 83//42
f 56//43 35//43 34//43
f 56//43 34//43 57//43
f 57//44 34//44 82//44
f 61//30 35//30 56//30
f 87//45 88//45 36//45
f 36//46 88//46 89//46
f 36//47 89//47 37//47
f 87//48 36//48 55//48
f 55//49 36//49 41//49
f 37//50 90//50 91//50
f 91//51 92//51 37//51
f 37//52 92//52 93//52
f 37//53 93//53 38//53
f 37//54 89//54 94//54
f 37//55 94//55 90//55
f 38//56 93//56 95//56
f 38//57 95//57 79//57
f 51//58 40//58 39//58
f 51//58 39//58 52//58
f 52//59 39//59 43//59
f 50//60 41//60 40//60
f 50//60 40//60 51//60
f 55//49 41//49 50//49
f 47//61 43//61 42//61
f 47//61 42//61 48//61
f 52//59 43//59 47//59
f 58//62 96//62 53//62
f 96//63 97//63 53//63
f 53//57 97//57 98//57
f 53//64 98//64 54//64
f 98//65 99//65 54//65
f 54//66 99//66 100//66
f 54//67 100//67 101//67
f 101//68 102//68 54//68
f 54//69 102//69 103//69
f 54//70 103//70 55//70
f 104//71 105//71 55//71
f 55//72 105//72 87//72
f 55//73 103//73 106//73
f 55//74 106//74 104//74
f 107//75 108//75 57//75
f 57//76 108//76 109//76
f 109//77 110//77 57//77
f 57//78 110//78 111//78
f 57//79 111//79 58//79
f 57//80 82//80 107//80
f 58//81 112//81 96//81
f 58//82 111//82 113//82
f 58//32 113//32 112//32
f 80//83 114//83 77//83
f 77//84 114//84 78//84
f 78//85 114//85 115//85
f 78//86 115//86 86//86
f 95//87 116//87 79//87
f 79//88 116//88 117//88
f 79//89 117//89 80//89
f 80//90 117//90 114//90
f 85//91 118//91 81//91
f 81//92 118//92 82//92
f 82//93 118//93 119//93
f 82//94 119//94 107//94
f 86//95 115//95 83//95
f 83//96 115//96 120//96
f 83//97 120//97 84//97
f 84//98 120//98 85//98
f 85//99 120//99 118//99
f 105//100 121//100 87//100
f 87//101 121//101 122//101
f 87//102 122//102 88//102
f 88//103 122//103 89//103
f 89//104 122//104 123//104
f 89//105 123//105 94//105
f 94//106 123//106 90//106
f 90//107 123//107 124//107
f 90//108 124//108 91//108
f 124//109 92//109 91//109
f 124//110 93//110 92//110
f 95//111 93//111 116//111
f 116//112 93//112 124//112
f 125//113 97//113 96//113
f 125//114 96//114 112//114
f 126//115 98//115 97//115
f 126//116 97//116 125//116
f 127//117 99//117 98//117
f 127//118 98//118 126//118
f 100//119 99//119 127//119
f 127//120 128//120 100//120
f 128//121 101//121 100//121
f 128//122 102//122 101//122
f 129//123 103//123 102//123
f 129//124 102//124 128//124
f 106//125 103//125 129//125
f 106//126 129//126 104//126
f 104//127 129//127 121//127
f 104//128 121//128 105//128
f 107//129 119//129 108//129
f 108//130 119//130 130//130
f 108//131 130//131 109//131
f 109//132 130//132 110//132
f 110//133 130//133 131//133
f 110//134 131//134 111//134
f 131//135 113//135 111//135
f 125//136 112//136 131//136
f 131//137 112//137 113//137
f 115//138 114//138 132//138
f 132//138 114//138 117//138
f 132//138 120//138 115//138
f 116//138 124//138 132//138
f 132//138 117//138 116//138
f 119//138 118//138 132//138
f 132//138 118//138 120//138
f 132//138 130//138 119//138
f 122//138 121//138 132//138
f 132//138 121//138 129//138
f 132//138 123//138 122//138
f 132//138 124//138 123//138
f 132//138 126//138 125//138
f 125//138 131//138 132//138
f 132//138 127//138 126//138
f 128//138 127//138 132//138
f 132//138 129//138 128//138
f 132//138 131//138 130//138
# Vertices: 132, normals: 138, texture coordinates: 0, faces: 260

